<?xml version="1.0" encoding="utf-8"?>
<!-- Generator: Adobe Illustrator 23.0.1, SVG Export Plug-In . SVG Version: 6.00 Build 0)  -->
<svg version="1.1" id="Layer_1" xmlns="http://www.w3.org/2000/svg" xmlns:xlink="http://www.w3.org/1999/xlink" x="0px" y="0px"
	 viewBox="0 0 29.4 36" style="enable-background:new 0 0 29.4 36;" xml:space="preserve">
<style type="text/css">
	.st0{fill:url(#SVGID_1_);}
</style>
<g>
	
		<linearGradient id="SVGID_1_" gradientUnits="userSpaceOnUse" x1="0" y1="20.1968" x2="28.2857" y2="20.1968" gradientTransform="matrix(1 0 0 -1 0 38)">
		<stop  offset="0" style="stop-color:#0037A5"/>
		<stop  offset="0.5038" style="stop-color:#6933FF"/>
		<stop  offset="1" style="stop-color:#00FCED"/>
	</linearGradient>
	<path class="st0" d="M22.5,24c0.9-3.6,0.7-7.3-0.4-10.8c-1.2-3.5-3.3-6.6-6.2-8.9C18.5,2.7,21.4,2,24.4,2c1.1,0,2.3,0.1,3.4,0.3
		l0.5-1.9C27,0.1,25.7,0,24.4,0c-3.6,0-7.2,1-10.3,3C11.1,1,7.5,0,3.9,0C2.6,0,1.3,0.1,0,0.4l0.5,1.9C1.6,2.1,2.7,2,3.9,2
		c3,0,6,0.8,8.6,2.3c-2.3,1.9-4.2,4.3-5.4,7C5.8,14,5.2,17,5.3,20c0.1,3,0.9,6,2.4,8.6c1.4,2.6,3.5,4.9,5.9,6.6l0.6,0.4l0.5-0.4
		C18.6,32.6,21.3,28.5,22.5,24L22.5,24z M13.2,32.4c-2.5-2.2-4.4-5.1-5.3-8.4C6.9,20.8,7,17.3,8,14.1c1,1.6,2.2,3.1,3.6,4.4
		c0.5,0.4,0.9,1,1.2,1.6c0.3,0.6,0.4,1.3,0.4,1.9V32.4z M14.1,18.1c-1.3-1-2.5-2.1-3.5-3.4c-0.6-0.8-1-1.9-1-2.9c0-1,0.3-2.1,1-2.9
		c1-1.3,2.1-2.5,3.5-3.5c1.3,1,2.5,2.2,3.5,3.5c0.6,0.8,0.9,1.8,0.9,2.8c0,1-0.3,2-0.9,2.8C16.6,15.9,15.5,17.1,14.1,18.1z
		 M15.1,32.4V22.1c0-0.7,0.1-1.3,0.4-1.9s0.7-1.2,1.2-1.6c1.4-1.3,2.6-2.8,3.6-4.4c0.5,1.7,0.8,3.4,0.8,5.2c0,2.5-0.5,4.9-1.6,7.2
		S17,30.8,15.1,32.4z"/>
</g>
</svg>
